<svg id="Layer_1" data-name="Layer 1" xmlns="http://www.w3.org/2000/svg" viewBox="0 0 85 20"><defs><style>.cls-1{fill:#fff;}</style></defs><title>logotipo</title><path class="cls-1" d="M8.67,5.34A4.07,4.07,0,0,1,5.69,4l.64-.6a3.2,3.2,0,0,0,2.35,1,3.59,3.59,0,0,0,3.23-3.23,2.43,2.43,0,0,0,0-.38L12.6,0A4.11,4.11,0,0,1,8.67,5.34Z"/><path class="cls-1" d="M4.65,11.17l.5-1.1,6.5-2.39-.3,1.07Z"/><path class="cls-1" d="M10.18,15.39v-.88A1.83,1.83,0,0,0,12,12.68h.88A2.71,2.71,0,0,1,10.18,15.39Z"/><path class="cls-1" d="M14.73,15.39A2.71,2.71,0,0,1,12,12.68h.88a1.83,1.83,0,0,0,1.83,1.83Z"/><rect class="cls-1" x="12.01" y="8.99" width="0.88" height="3.69"/><path class="cls-1" d="M19.06,15.37a4.11,4.11,0,1,1,.59-8.18l-.12.87a3.27,3.27,0,0,0-.46,0A3.23,3.23,0,1,0,21.81,13l.75.46A4.09,4.09,0,0,1,19.06,15.37Z"/><path class="cls-1" d="M26.8,15.37a4.11,4.11,0,1,1,0-8.22,4.16,4.16,0,0,1,.59,0l-.12.87a3.27,3.27,0,0,0-.46,0A3.23,3.23,0,1,0,29.55,13l.75.46A4.09,4.09,0,0,1,26.8,15.37Z"/><path class="cls-1" d="M30.27,15.39v-.88a1.83,1.83,0,0,0,1.83-1.83H33A2.71,2.71,0,0,1,30.27,15.39Z"/><path class="cls-1" d="M34.81,15.39a2.71,2.71,0,0,1-2.71-2.71H33a1.83,1.83,0,0,0,1.83,1.83Z"/><rect class="cls-1" x="32.1" y="8.99" width="0.88" height="3.69"/><path class="cls-1" d="M38.71,15.37a4.11,4.11,0,1,1,4.11-4.11A4.12,4.12,0,0,1,38.71,15.37Zm0-7.35a3.23,3.23,0,1,0,3.23,3.23A3.24,3.24,0,0,0,38.71,8Z"/><path class="cls-1" d="M40,11.63a6.4,6.4,0,0,1-4.7-2.07L36,9a5.5,5.5,0,0,0,9.13-1.58l.81.34A6.37,6.37,0,0,1,40,11.63Z"/><rect class="cls-1" x="43.74" y="7.58" width="0.88" height="7.37"/><path class="cls-1" d="M51.45,15l-.88,0c.15-3.6-1.12-6.62-2.82-6.74-1.18-.08-2.41,1.31-3.13,3.53l-.84-.27c.86-2.66,2.4-4.24,4-4.14C50.05,7.47,51.62,10.76,51.45,15Z"/><path class="cls-1" d="M55.57,15.36A4.11,4.11,0,1,1,58.7,8.59L58,9.16a3.23,3.23,0,1,0,.14,4l.71.52A4.13,4.13,0,0,1,55.57,15.36Z"/><path class="cls-1" d="M60.67,15.39A2.71,2.71,0,0,1,58,12.68h.88a1.83,1.83,0,0,0,1.83,1.83Z"/><rect class="cls-1" x="57.96" y="7.58" width="0.88" height="5.1"/><path class="cls-1" d="M63.53,15.26a4.11,4.11,0,1,1,3.13-6.78L66,9.06a3.23,3.23,0,1,0,.14,4l.71.52A4.13,4.13,0,0,1,63.53,15.26Z"/><rect class="cls-1" x="65.92" y="2.98" width="0.88" height="11.95"/><path class="cls-1" d="M71.16,15.48a4.11,4.11,0,1,1,4.11-4.11A4.12,4.12,0,0,1,71.16,15.48Zm0-7.35a3.23,3.23,0,1,0,3.23,3.23A3.24,3.24,0,0,0,71.16,8.13Z"/><path class="cls-1" d="M72.45,11.74a6.4,6.4,0,0,1-4.7-2.07l.65-.59A5.5,5.5,0,0,0,77.52,7.5l.81.34A6.37,6.37,0,0,1,72.45,11.74Z"/><path class="cls-1" d="M4.53,15.37a4.12,4.12,0,0,1-4-3l1,.13a3.31,3.31,0,0,0,1,1.34,3.37,3.37,0,0,0,2,.66,3.23,3.23,0,0,0,3.23-3.23q0-.09,0-.18l0-.22A15,15,0,0,0,5.9,4.36l0,0a2,2,0,0,0-1.58-.9A1.91,1.91,0,0,0,2.55,4.57l-1,.68a2.71,2.71,0,0,1,5-1.45h0l0,.08a15.81,15.81,0,0,1,2,6.93l0,.21c0,.08,0,.16,0,.23A4.11,4.11,0,0,1,4.53,15.37Z"/><path class="cls-1" d="M78.62,19.91a6.46,6.46,0,0,1-.73,0L78,19a5.59,5.59,0,0,0,.63,0,5.5,5.5,0,0,0,.52-11l.08-.88a6.38,6.38,0,0,1-.61,12.74Z"/><path class="cls-1" d="M75.91,12.86l.43-1A3.35,3.35,0,0,0,78,11a3.45,3.45,0,0,0,.9-2.27,3.26,3.26,0,0,0-.14-1,.64.64,0,0,1,.49-.57l.34.25a4.19,4.19,0,0,1-3.68,5.44Z"/><path class="cls-1" d="M77.88,19.87a6.31,6.31,0,0,1-1.7-.44L76,19.34s-.24-.11-.47-.24c-2-1.14-2.3-2.2-2.3-2.2a2.12,2.12,0,0,1,0-1,2.79,2.79,0,0,1,2.67-2,2.85,2.85,0,0,1,2.71,2.71,2.71,2.71,0,0,1-.35,1.33l-.59-.84a1.51,1.51,0,0,0,.06-.48,2,2,0,0,0-1.83-1.83,1.78,1.78,0,0,0-1.68.86,1.46,1.46,0,0,0-.12,1c0,.12.12.42.75,1A5.83,5.83,0,0,0,78,19Z"/><circle class="cls-1" cx="32.46" cy="7.55" r="0.44"/><circle class="cls-1" cx="12.45" cy="7.55" r="0.44"/></svg>