<?xml version="1.0" encoding="utf-8"?>
<!-- Generator: Adobe Illustrator 21.1.0, SVG Export Plug-In . SVG Version: 6.00 Build 0)  -->
<svg version="1.1" xmlns="http://www.w3.org/2000/svg" xmlns:xlink="http://www.w3.org/1999/xlink" x="0px" y="0px"
	 viewBox="0 0 100 100" style="enable-background:new 0 0 100 100;" xml:space="preserve">
<style type="text/css">
	.st0{display:none;}
	.st1{display:inline;fill:#020202;}
	.st2{display:inline;}
	.st3{fill:none;stroke:#000000;stroke-linecap:round;stroke-linejoin:round;}
</style>
<g id="Layer_1" class="st0">
	
		<image style="display:inline;overflow:visible;" width="246" height="246" xlink:href="FAD97EAF.jpg"  transform="matrix(0.4065 0 0 0.4065 0 0)">
	</image>
</g>
<g id="Layer_2" class="st0">
	<path class="st1" d="M69.5,36h-35c-1.4,0-2.5-1.1-2.5-2.5v0c0-1.4,1.1-2.5,2.5-2.5h35c1.4,0,2.5,1.1,2.5,2.5v0
		C72,34.9,70.9,36,69.5,36z"/>
	<path class="st1" d="M76.5,47h-54c-1.4,0-2.5-1.1-2.5-2.5v0c0-1.4,1.1-2.5,2.5-2.5h54c1.4,0,2.5,1.1,2.5,2.5v0
		C79,45.9,77.9,47,76.5,47z"/>
	<path class="st1" d="M86.5,58h-48c-1.4,0-2.5-1.1-2.5-2.5v0c0-1.4,1.1-2.5,2.5-2.5h48c1.4,0,2.5,1.1,2.5,2.5v0
		C89,56.9,87.9,58,86.5,58z"/>
	<path class="st2" d="M68.5,69h-55c-1.4,0-2.5-1.1-2.5-2.5l0,0c0-1.4,1.1-2.5,2.5-2.5h55c1.4,0,2.5,1.1,2.5,2.5l0,0
		C71,67.9,69.9,69,68.5,69z"/>
</g>
<g id="Layer_3">
	<g>
		<g>
			<path class="st3" d="M54.2,30.4c0,0,3-3.2,3.1-3.1"/>
			<path class="st3" d="M18.3,27.1c0,0,2.2-2.5,2.3-2.3l-4.4,7.1l9-9l-8.4,10.5l11.5-11.5c0.5,0.5-12.2,14-12,14.2
				c0.3,0.3,14.6-14.6,14.6-14.6s-15.7,16.1-15,16.8c0.6,0.6,15.8-17,16.4-16.4c0,0-15.9,17.6-15.7,17.8c0,0,18-18.4,18.2-18.2
				C34.7,21.5,17,41.9,17,41.9c0.7,0.7,19.1-19.5,19.3-19.3c0.5,0.5-19.3,21.2-19.2,21.2l21.1-21.1c0.8,0.8-20.6,23.1-20.6,23.1
				l22.7-22.7c0.8,0.8-22.4,24.8-22.4,24.8l23.8-23.8c0,0-22.8,24.1-22.4,24.5c0.3,0.3,23.7-23.7,23.7-23.7s-23.6,25-23.6,25
				L44,25.2L19.8,50.9c0,0,24.3-25.3,24.8-24.8c1,1-23.7,25.8-23.7,25.8s24.1-25.6,24.8-24.8c0,0-25,25.1-23.7,26.4L47,28.5
				c0,0-25.1,26.8-24.7,27.2c1.1,1.1,26.1-26.1,26.1-26.1c1.1,1.1-24.8,26.3-24.8,26.3l24.7-24.7c0,0-24.4,25.2-24.1,25.5
				c1,1,23.8-26.2,25-25l-24,26.1C25.5,58,49.3,32.4,49.9,33c0.6,0.6-25.2,25.3-24.5,25.9l24.4-24.4c0.1,0.1-23.8,24.2-23,24.9
				c1.3,1.3,31.8-34.9,33.4-33.4L27.6,60.3c1.4,1.4,35.9-35.9,35.9-35.9S27.8,60.9,28.4,61.4c0,0,36.8-37.8,37.3-37.3
				c0,0-37.2,37.7-36.7,38.3l37.8-37.8c0.6,0.6-36.1,38.8-36.1,38.8s37.9-38.8,38.3-38.3L32.3,63.7C33,64.4,70,23,71.5,24.5
				c1,1-38,40.2-38,40.2c1.1,1.1,38.9-40.6,39.7-39.7L34.5,65.4c0.8,0.8,39.9-39.9,39.9-39.9l-39,41.7l40.3-40.3
				c0.5,0.5-39.8,41-39.4,41.4c1,1,40.3-40.3,40.3-40.3c1.5,1.5-39.2,40.9-39.2,40.9s39.9-41.8,40.8-40.8L38.4,70.1
				c0,0,40.1-41.1,40.6-40.6L40.4,70.2c1.8,1.8,38.6-42,40.3-40.3L41.5,70.8c2,2,38-40.4,39.2-39.2L41.9,71.9l39.6-39.6
				c0,0-40.2,38.9-38.8,40.3c1.3,1.3,37.5-40.9,39.2-39.2l-38,39.8C45.2,74.7,83,34.1,83,34.1c0,0-38.7,40.8-38.7,40.8
				C46,76.6,82,34.8,83.2,36c1.2,1.2-37.1,39.2-37.1,39.2S81.4,36.3,83.2,38L46.8,77c1.8,1.8,36.6-36.6,36.6-36.6S47.2,77.4,47.8,78
				c0.6,0.6,35.9-35.9,35.9-35.9c0.1,0.1-35.1,34.9-34.2,35.8l34-34c1.6,1.6-34.3,33.9-33,35.2l32.7-32.7L56.6,75.5
				c0,0,25-26.7,25.8-25.8c0,0-20.9,20.9-19.9,21.9c0.8,0.8,18-18,18-18C81.1,54.1,70,66.3,70,66.3c0.2,0.2,8.5-8.5,8.5-8.5"/>
		</g>
	</g>
</g>
</svg>
