<svg id="Layer_1" data-name="Layer 1" xmlns="http://www.w3.org/2000/svg" viewBox="0 0 20 20"><defs><style>.cls-1{fill:#fff;}.cls-2{fill:none;}</style></defs><title>Artboard 1</title><path class="cls-1" d="M18,20H2a2,2,0,0,1-2-2V2A2,2,0,0,1,2,0H18a2,2,0,0,1,2,2V18A2,2,0,0,1,18,20ZM2,.67A1.28,1.28,0,0,0,.67,2V18A1.28,1.28,0,0,0,2,19.33H18A1.28,1.28,0,0,0,19.33,18V2A1.28,1.28,0,0,0,18,.67Z"/><path class="cls-2" d="M2.49,19.58H4.6a5.71,5.71,0,0,0,0-.59Z"/><path class="cls-1" d="M13.83,4.23h.08a19.51,19.51,0,0,0-3.81.24c-.38.09-.77.21-.77.21a5.08,5.08,0,0,0-.77.3,4.23,4.23,0,0,0-.6.37,4,4,0,0,1,.46-.1,4.47,4.47,0,0,1,1,0,3.31,3.31,0,0,1,.89.16,1.52,1.52,0,0,1,.93.7,1.85,1.85,0,0,1,.18.38,1.9,1.9,0,0,1,.08.33,5.37,5.37,0,0,1,1.69-.93,5.73,5.73,0,0,1,.9-.21h-.23ZM11,4.57c-.31.06-.57.07-.58,0s.23-.15.54-.21.57-.07.58,0S11.31,4.51,11,4.57Z"/><path class="cls-1" d="M16.55,5H14.28v.64a7.92,7.92,0,0,1,2.13,0,3,3,0,0,1,1.68.62,1.56,1.56,0,0,1,.55.76,1.74,1.74,0,0,1-.32,1.38c-.8,1.22-2.72,1.12-2.89,1.11s-.44,0-.61,0a32,32,0,0,0-5.42,0,5.54,5.54,0,0,0-2.32.67,4.32,4.32,0,0,0-1.21,1.14L14.16,11,5.22,12.54a6.26,6.26,0,0,0-.33,1.06,8.15,8.15,0,0,0-.12,1l8.4-.32L4.68,15.92c0,.71-.07,1.09-.06,1.63,0,.17,0,.37,0,.63l4.51-.43L4.63,19a5.71,5.71,0,0,1,0,.59H9.94q1.92-1.64,3.67-3.41c3.12-3.16,5.19-5.79,6.06-7.64V5.82A2.89,2.89,0,0,0,19,5.29,4.84,4.84,0,0,0,16.55,5Z"/><path class="cls-1" d="M19.63,4.61c-.37-.31-.7-.3-4.28-.36l-1.08,0v.44h2.27A5.08,5.08,0,0,1,19.11,5a3.19,3.19,0,0,1,.56.37V4.65Z"/><path class="cls-1" d="M13.84,16.39Q12.21,18,10.43,19.58h5.65l-.66-1.06L17,19.58H18a1.64,1.64,0,0,0,1.62-1.41l-1.89-2.34,1.91,1.36V13.5L19,12.65l.65.61v-4A19.46,19.46,0,0,1,18,11.67,53.29,53.29,0,0,1,13.84,16.39Z"/><path class="cls-2" d="M16.55,4.69H14.28V5h2.27a4.84,4.84,0,0,1,2.4.28,2.89,2.89,0,0,1,.71.53V5.38A3.19,3.19,0,0,0,19.11,5,5.08,5.08,0,0,0,16.55,4.69Z"/><path class="cls-2" d="M9.94,19.58h.49q1.78-1.53,3.41-3.18A53.29,53.29,0,0,0,18,11.67a19.46,19.46,0,0,0,1.63-2.44v-.7c-.87,1.85-2.94,4.48-6.06,7.64Q11.86,17.94,9.94,19.58Z"/><polygon class="cls-2" points="14.28 4.67 14.28 4.24 14.28 4.23 13.9 4.23 13.83 4.23 13.83 5.67 14.06 5.67 14.28 5.67 14.28 5.63 14.28 4.99 14.28 4.67"/><ellipse class="cls-2" cx="10.98" cy="4.47" rx="0.57" ry="0.1" transform="translate(-0.65 2.19) rotate(-11.06)"/><path class="cls-2" d="M19.65,18.17a1.62,1.62,0,0,0,0-.22v-.76l-1.91-1.36Z"/><polygon class="cls-2" points="19.66 13.51 19.66 13.26 19.01 12.65 19.66 13.51"/><path class="cls-2" d="M16.08,19.58H17l-1.53-1.06Z"/></svg>