<?xml version="1.0" encoding="utf-8"?>
<!-- Generator: Adobe Illustrator 21.1.0, SVG Export Plug-In . SVG Version: 6.00 Build 0)  -->
<svg version="1.1" xmlns="http://www.w3.org/2000/svg" xmlns:xlink="http://www.w3.org/1999/xlink" x="0px" y="0px"
	 viewBox="0 0 100 100" style="enable-background:new 0 0 100 100;" xml:space="preserve">
<style type="text/css">
	.st0{display:none;}
	.st1{display:inline;fill:#020202;}
	.st2{display:inline;}
	.st3{fill:none;stroke:#000000;stroke-linecap:round;stroke-linejoin:round;}
</style>
<g id="Layer_1" class="st0">
	
		<image style="display:inline;overflow:visible;" width="246" height="246" xlink:href="65C191F9.jpg"  transform="matrix(0.4065 0 0 0.4065 0 0)">
	</image>
</g>
<g id="Layer_2" class="st0">
	<path class="st1" d="M69.5,36h-35c-1.4,0-2.5-1.1-2.5-2.5v0c0-1.4,1.1-2.5,2.5-2.5h35c1.4,0,2.5,1.1,2.5,2.5v0
		C72,34.9,70.9,36,69.5,36z"/>
	<path class="st1" d="M76.5,47h-54c-1.4,0-2.5-1.1-2.5-2.5v0c0-1.4,1.1-2.5,2.5-2.5h54c1.4,0,2.5,1.1,2.5,2.5v0
		C79,45.9,77.9,47,76.5,47z"/>
	<path class="st1" d="M86.5,58h-48c-1.4,0-2.5-1.1-2.5-2.5v0c0-1.4,1.1-2.5,2.5-2.5h48c1.4,0,2.5,1.1,2.5,2.5v0
		C89,56.9,87.9,58,86.5,58z"/>
	<path class="st2" d="M68.5,69h-55c-1.4,0-2.5-1.1-2.5-2.5l0,0c0-1.4,1.1-2.5,2.5-2.5h55c1.4,0,2.5,1.1,2.5,2.5l0,0
		C71,67.9,69.9,69,68.5,69z"/>
</g>
<g id="Layer_3">
	<g>
		<g>
			<g>
				<path class="st3" d="M45.6,28.1c0.3,0.3,6.8-7.2,7-7l-1.4,4.5c0.1,0.1,3.7-3.7,3.7-3.7s-2.1,4.1-2,4.1l3.7-3.7
					c0.1,0.1-0.9,3.6-0.9,3.6c0.1,0.1,3.7-3.8,3.7-3.7L59,26.1c0.1,0.1,2.8-2.8,2.8-2.8s-1.7,3.7-1.6,3.8l2.8-2.8
					c0,0-0.9,3.5-0.8,3.6c0.1,0.1,2.4-2.4,2.4-2.4c0.1,0.1-0.6,3.4-0.6,3.4c0.1,0.1,2-2.3,2.2-2.2c0,0-0.9,4.4-0.9,4.4
					s2.5-2.8,2.7-2.7l-0.8,3.2c0,0,2.7-2.8,2.8-2.8c0.1,0.1-2.7,4.7-2.7,4.8c0,0,2.7-2.8,2.8-2.8c0,0-1.9,5.2-1.9,5.2l3.5-3.5
					c0,0-2.4,4.4-2.2,4.5c0.2,0.2,2.9-3.1,3-3c0.2,0.2-2.8,5.1-2.7,5.2c0,0,3.8-4.3,4.1-4.1c0,0-3.9,7.4-3.9,7.4
					c0,0,4.1-4.5,4.3-4.3l-6,9.1c0,0,6.9-6.9,6.9-6.9"/>
				<path class="st3" d="M49.2,58c0,0,2.6-3,2.8-2.8l-1.7,4.6c0,0,4.2-4.5,4.4-4.4c0,0-1.2,4.4-1.1,4.6c0.1,0.1,5.2-5.8,5.5-5.5
					c0,0-4,6.2-3.9,6.3l7.6-7.6c0.3,0.3-4.9,7.2-4.9,7.2c0.3,0.3,16.7-16.7,16.7-16.7c0.7,0.7-14.8,16.6-14.3,17.2l14-14
					c0.2,0.2-10.4,13-10.4,13s9.3-10,9.7-9.7"/>
				<path class="st3" d="M36.3,27.6l2.7-2.7c0.1,0.1-5.2,7.7-5.1,7.7l9.9-9.9C44.4,23.2,33,36.9,33,36.9
					c0.4,0.4,15.2-15.5,15.4-15.4L33,39l17.7-17.7C51.4,22,33.7,40.9,33.8,41c0.1,0.1,6.1-6.1,6.1-6.1c0.3,0.3-6.8,8.4-6.5,8.7
					c0,0,4.6-5.2,4.9-4.9l-4.2,6.5l4.8-4.8c0,0-4.4,6-4.1,6.2c0.1,0.1,3.7-3.7,3.7-3.7l-3,5.9c0,0,4.3-4.4,4.3-4.3
					c0,0-2.7,4.8-2.5,5c0,0,2.4-2.8,2.6-2.6c0.1,0.1-2.6,4.9-2.6,4.9l3.5-3.5c0,0-1.2,4.5-1.1,4.6l3.2-3.2l-2,4.6
					c0.2,0.2,3.2-3.2,3.2-3.2c0,0-5,8.1-4.9,8.3l7.1-7.1c0.4,0.4-10.5,13.9-10.5,14c0,0,12-12.3,12.2-12.2C48.5,55,32.3,73,32.3,73
					l18.6-18.6L30,77.5l15.4-15.4c0,0-15.1,17.1-15,17.2c0,0,11.3-11.7,11.5-11.5L30.7,82.2c0.1,0.1,5.2-5.2,5.2-5.2"/>
			</g>
		</g>
		<g>
		</g>
		<g>
		</g>
	</g>
</g>
</svg>
