<?xml version="1.0" encoding="utf-8"?>
<!-- Generator: Adobe Illustrator 21.1.0, SVG Export Plug-In . SVG Version: 6.00 Build 0)  -->
<svg version="1.1" id="Layer_2" xmlns="http://www.w3.org/2000/svg" xmlns:xlink="http://www.w3.org/1999/xlink" x="0px" y="0px"
	 viewBox="0 0 100 100" style="enable-background:new 0 0 100 100;" xml:space="preserve">
<title>Sweek</title>
<g>
	<path d="M34.5,36h35c0,0,0,0,0,0c1.4,0,2.5-1.1,2.5-2.5c0,0,0,0,0,0c0-1.4-1.1-2.5-2.5-2.5h-35c0,0,0,0,0,0c-1.4,0-2.5,1.1-2.5,2.5
		c0,0,0,0,0,0C32,34.9,33.1,36,34.5,36z"/>
	<path d="M22.5,47h54c0,0,0,0,0,0c1.4,0,2.5-1.1,2.5-2.5c0,0,0,0,0,0c0-1.4-1.1-2.5-2.5-2.5h-54c0,0,0,0,0,0c-1.4,0-2.5,1.1-2.5,2.5
		c0,0,0,0,0,0C20,45.9,21.1,47,22.5,47z"/>
	<path d="M86.5,53h-48c0,0,0,0,0,0c-1.4,0-2.5,1.1-2.5,2.5c0,0,0,0,0,0c0,1.4,1.1,2.5,2.5,2.5h48c0,0,0,0,0,0c1.4,0,2.5-1.1,2.5-2.5
		c0,0,0,0,0,0C89,54.1,87.9,53,86.5,53z"/>
	<path d="M68.5,64h-55c0,0,0,0,0,0c-1.4,0-2.5,1.1-2.5,2.5c0,0,0,0,0,0c0,1.4,1.1,2.5,2.5,2.5h55c0,0,0,0,0,0c1.4,0,2.5-1.1,2.5-2.5
		c0,0,0,0,0,0C71,65.1,69.9,64,68.5,64z"/>
</g>
</svg>
