<?xml version="1.0" encoding="utf-8"?>
<!-- Generator: Adobe Illustrator 21.1.0, SVG Export Plug-In . SVG Version: 6.00 Build 0)  -->
<svg version="1.1" xmlns="http://www.w3.org/2000/svg" xmlns:xlink="http://www.w3.org/1999/xlink" x="0px" y="0px"
	 viewBox="0 0 100 100" style="enable-background:new 0 0 100 100;" xml:space="preserve">
<style type="text/css">
	.st0{display:none;}
	.st1{display:inline;fill:#020202;}
	.st2{display:inline;}
	.st3{fill:none;stroke:#000000;stroke-linecap:round;stroke-linejoin:round;}
</style>
<g id="Layer_1" class="st0">
	
		<image style="display:inline;overflow:visible;" width="246" height="246" xlink:href="576AA8DD.jpg"  transform="matrix(0.4065 0 0 0.4065 0 0)">
	</image>
</g>
<g id="Layer_2" class="st0">
	<path class="st1" d="M69.5,36h-35c-1.4,0-2.5-1.1-2.5-2.5v0c0-1.4,1.1-2.5,2.5-2.5h35c1.4,0,2.5,1.1,2.5,2.5v0
		C72,34.9,70.9,36,69.5,36z"/>
	<path class="st1" d="M76.5,47h-54c-1.4,0-2.5-1.1-2.5-2.5v0c0-1.4,1.1-2.5,2.5-2.5h54c1.4,0,2.5,1.1,2.5,2.5v0
		C79,45.9,77.9,47,76.5,47z"/>
	<path class="st1" d="M86.5,58h-48c-1.4,0-2.5-1.1-2.5-2.5v0c0-1.4,1.1-2.5,2.5-2.5h48c1.4,0,2.5,1.1,2.5,2.5v0
		C89,56.9,87.9,58,86.5,58z"/>
	<path class="st2" d="M68.5,69h-55c-1.4,0-2.5-1.1-2.5-2.5l0,0c0-1.4,1.1-2.5,2.5-2.5h55c1.4,0,2.5,1.1,2.5,2.5l0,0
		C71,67.9,69.9,69,68.5,69z"/>
</g>
<g id="Layer_3">
	<g>
		<g>
			<g>
				<path class="st3" d="M38.6,52.9l3.4-3.4l-3.7,6.3c0,0,17-17,17-17c0.5,0.5-16,18.3-15.4,19c1,1,33.3-36.7,35-35
					c0,0-34.9,34.9-33.4,36.4l38.1-38.1L43.2,59.9l38.5-38.5c1.2,1.2-34.8,37.4-34.8,37.4l35.6-35.6c0,0-30.2,31.6-29.7,32.1
					l30.4-30.4c0.8,0.8-23.8,25.6-23.3,26.2C60.3,51.4,83,28,83,28c0.3,0.3-18,20.3-18,20.3L82.3,31c0,0-12.6,14.7-12.4,14.8
					c0,0,10.5-11.4,11-11"/>
			</g>
		</g>
		<g>
			<g>
				<path class="st3" d="M17.7,70.8l0.7-0.7l0.1,3.2l19.1-19.1c0.7,0.7-17.7,19.1-16.7,20.1c0.3,0.3,17.7-18.9,18.3-18.3
					C39.7,56.6,28,70.3,28,70.3c0,0,12.2-12.4,12.3-12.3c0.1,0.1-6.4,9.6-6.4,9.6c0.3,0.3,8-8,8-8c0,0-5.5,8-5.2,8.4l6.9-6.9
					c0.3,0.3-3.9,6.9-3.7,7.1c0.1,0.1,4.2-4.7,4.4-4.4c0.1,0.1-2.8,6-2.8,6c0.3,0.3,4.6-4.9,4.8-4.8c0.1,0.1-3.9,6.4-3.8,6.6
					l4.9-4.9l-2.7,5.4c0.1,0.1,4-4,4-4l-3,5.4c0,0,3.8-4.1,3.9-3.9c0,0-2,3.9-1.9,4c0.1,0.1,2.5-2.5,2.5-2.5c0.1,0.1,0,3.4,0,3.4
					l1.8-1.8"/>
				<path class="st3" d="M25.9,46.1l1.3-1.3c0,0-1,4.1-1,4.1s1.9-2.1,2-2c0.1,0.1-2,5.2-2,5.2c0.2,0.2,4.3-4.3,4.3-4.3
					c0.1,0.1-2.7,5.3-2.6,5.4c0,0,3.6-4.2,3.9-3.9c0,0-3.2,5.4-3.2,5.4c0.1,0.1,4.1-4.1,4.1-4.1l-4,6.5l5.7-5.7l-4.6,7.9l5.8-5.8"/>
			</g>
		</g>
	</g>
</g>
</svg>
